<?xml version="1.0" encoding="UTF-8"?>
<svg width="18px" height="20px" viewBox="0 0 18 20" version="1.1" xmlns="http://www.w3.org/2000/svg" xmlns:xlink="http://www.w3.org/1999/xlink">
	<!-- Generator: Sketch 51.1 (57501) - http://www.bohemiancoding.com/sketch -->
	<title>
		ic_today
	</title>
	<desc>
		Created with Sketch.
	</desc>
	<defs>
	</defs>
	<g id="CLEAR_24thJUL" stroke="none" stroke-width="1" fill="none" fill-rule="evenodd">
		<g id="Application-Form_COMPANY" transform="translate(-1144.000000, -359.000000)">
			<g id="Group-19" transform="translate(149.000000, 188.000000)">
				<g transform="translate(8.000000, 0.000000)" id="Group-18">
					<g transform="translate(6.000000, 0.000000)">
						<g id="Group-15" transform="translate(12.000000, 68.000000)">
							<g id="ic_today" transform="translate(966.000000, 102.000000)">
								<polygon id="Bounds" points="0 0 24 0 24 24 0 24">
								</polygon>
								<path d="M19,3 L18,3 L18,1 L16,1 L16,3 L8,3 L8,1 L6,1 L6,3 L5,3 C3.89,3 3.01,3.9 3.01,5 L3,19 C3,20.1 3.89,21 5,21 L19,21 C20.1,21 21,20.1 21,19 L21,5 C21,3.9 20.1,3 19,3 L19,3 Z M19,19 L5,19 L5,8 L19,8 L19,19 L19,19 Z M7,10 L12,10 L12,15 L7,15 L7,10 Z" id="Icon" fill="#44A3DF">
								</path>
							</g>
						</g>
					</g>
				</g>
			</g>
		</g>
	</g>
</svg>
