
<svg width="32px" height="32px" viewBox="0 0 32 32" version="1.1" xmlns="http://www.w3.org/2000/svg" xmlns:xlink="http://www.w3.org/1999/xlink">
    <g id="Symbols" stroke="none" stroke-width="1" fill="none" fill-rule="evenodd">
        <g id="LeftNav_Off" transform="translate(-13.000000, -76.000000)" fill="#FFFFFF">
            <g id="gears">
                <g transform="translate(13.000000, 76.000000)">
                    <path d="M16.4240625,19.8254375 C16.3045,19.5734375 16.0030625,19.4659375 15.751,19.585625 C15.340875,19.78025 14.910875,19.941125 14.473,20.063625 C14.2898125,20.114875 14.151,20.2645625 14.11375,20.451125 L13.57925,23.1235 C13.5265,23.387375 13.292875,23.5789375 13.02375,23.5789375 L11.5656875,23.5789375 C11.2965625,23.5789375 11.063,23.3874375 11.0101875,23.1235 L10.4756875,20.451125 C10.438375,20.2645625 10.2995,20.114875 10.1164375,20.063625 C9.4978125,19.8905 8.9008125,19.643125 8.342,19.328375 C8.1761875,19.235 7.972,19.2426875 7.81375,19.3481875 L5.545875,20.8600625 C5.322,21.0093125 5.021375,20.9795 4.831,20.78925 L3.8,19.7581875 C3.6096875,19.567875 3.58,19.26725 3.7291875,19.0433125 L5.2410625,16.7754375 C5.346625,16.617125 5.3543125,16.413 5.260875,16.2471875 C4.9460625,15.6883125 4.6986875,15.09125 4.525625,14.47275 C4.474375,14.2895625 4.3246875,14.15075 4.138125,14.1135 L1.46575,13.579 C1.201875,13.52625 1.0103125,13.292625 1.0103125,13.0235 L1.0103125,11.5654375 C1.0103125,11.2963125 1.2018125,11.06275 1.46575,11.0099375 L4.138125,10.4754375 C4.3246875,10.438125 4.474375,10.29925 4.525625,10.1161875 C4.69875,9.4975625 4.946125,8.9005625 5.260875,8.34175 C5.35425,8.176 5.3465625,7.9718125 5.2410625,7.8135 L3.7293125,5.545875 C3.5800625,5.3219375 3.6098125,5.021375 3.800125,4.831 L4.831125,3.8 C5.0214375,3.6096875 5.322125,3.58 5.546,3.7291875 L7.813875,5.2410625 C7.972125,5.346625 8.176375,5.35425 8.342125,5.260875 C8.9009375,4.946125 9.4979375,4.69875 10.1165625,4.525625 C10.29975,4.474375 10.4385625,4.3246875 10.4758125,4.138125 L11.0103125,1.46575 C11.0630625,1.201875 11.2966875,1.0103125 11.5658125,1.0103125 L13.023875,1.0103125 C13.293,1.0103125 13.5265625,1.2018125 13.579375,1.46575 L14.113875,4.138125 C14.1511875,4.3246875 14.2900625,4.474375 14.473125,4.525625 C15.09175,4.69875 15.68875,4.946125 16.2475625,5.260875 C16.413375,5.35425 16.6175625,5.3465625 16.7758125,5.2410625 L19.0436875,3.7291875 C19.2675625,3.5799375 19.568125,3.60975 19.7585625,3.8 L20.7895625,4.831 C20.979875,5.0213125 21.0095625,5.3219375 20.860375,5.545875 L19.3485,7.81375 C19.2429375,7.9720625 19.23525,8.1761875 19.3286875,8.342 C19.6434375,8.9008125 19.8908125,9.4978125 20.0639375,10.1164375 C20.1151875,10.299625 20.264875,10.4384375 20.4514375,10.4756875 L23.1238125,11.0101875 C23.3876875,11.0629375 23.57925,11.2965625 23.57925,11.5656875 L23.57925,13.02375 C23.57925,13.292875 23.38775,13.5264375 23.1238125,13.57925 L20.4514375,14.11375 C20.264875,14.1510625 20.1151875,14.2899375 20.0639375,14.473125 C19.938375,14.921875 19.7726875,15.3620625 19.5714375,15.7815 C19.4506875,16.0330625 19.5568125,16.334875 19.808375,16.4555625 C20.0599375,16.576375 20.3618125,16.4701875 20.4824375,16.218625 C20.6640625,15.8400625 20.82,15.4465 20.9475625,15.0450625 L23.322,14.5701875 C24.0563125,14.4231875 24.5894375,13.7728125 24.5894375,13.0236875 L24.5894375,11.565625 C24.5894375,10.8165 24.0563125,10.1661875 23.3216875,10.0191875 L20.9473125,9.5443125 C20.7915625,9.0540625 20.5941875,8.5774375 20.3576875,8.12125 L21.7009375,6.1063125 C22.1164375,5.483 22.033625,4.646125 21.503875,4.116375 L20.472875,3.085375 C19.9430625,2.555625 19.1061875,2.472875 18.4829375,2.8883125 L16.468,4.2315625 C16.0118125,3.995125 15.5351875,3.7976875 15.0449375,3.6419375 L14.5700625,1.2675625 C14.42325,0.533125 13.772875,0 13.02375,0 L11.5656875,0 C10.8165625,0 10.16625,0.533125 10.01925,1.26775 L9.544375,3.642125 C9.054125,3.797875 8.5775,3.99525 8.1213125,4.23175 L6.1065,2.8885 C5.48325,2.473 4.6463125,2.55575 4.1165625,3.0855625 L3.0855625,4.1165625 C2.555875,4.6463125 2.473,5.483125 2.8885,6.1065 L4.23175,8.1214375 C3.9953125,8.577625 3.797875,9.0541875 3.642125,9.5445 L1.2676875,10.019375 C0.533125,10.16625 0,10.816625 0,11.56575 L0,13.0238125 C0,13.7729375 0.533125,14.42325 1.26775,14.57025 L3.642125,15.045125 C3.7978125,15.5353125 3.99525,16.0119375 4.23175,16.4681875 L2.8885,18.483125 C2.473,19.1064375 2.5558125,19.9433125 3.0855625,20.4730625 L4.1165625,21.5040625 C4.6463125,22.0338125 5.4831875,22.1165625 6.1065,21.701125 L8.1214375,20.357875 C8.577625,20.5943125 9.0541875,20.79175 9.5445,20.9475 L10.019375,23.322 C10.16625,24.056375 10.816625,24.5895625 11.56575,24.5895625 L13.0238125,24.5895625 C13.7729375,24.5895625 14.42325,24.0564375 14.57025,23.3218125 L15.045125,20.9474375 C15.4344375,20.82375 15.8165625,20.6733125 16.184375,20.4986875 C16.4364375,20.3789375 16.5438125,20.0775625 16.4240625,19.8254375 Z" id="Path"></path>
                    <path d="M16.6711875,15.10225 C16.7449375,15.140125 16.8236875,15.1580625 16.9013125,15.1580625 C17.0848125,15.1580625 17.261875,15.05775 17.3513125,14.88325 C17.7588125,14.0885625 17.97425,13.1935 17.97425,12.2948125 C17.97425,9.163125 15.4264375,6.61525 12.2946875,6.61525 C10.8048125,6.61525 9.3969375,7.187875 8.3303125,8.2278125 C8.1305,8.4225625 8.1264375,8.7425 8.3211875,8.94225 C8.5159375,9.142 8.8358125,9.1461875 9.035625,8.951375 C9.9124375,8.096625 11.0698125,7.6258125 12.2945625,7.6258125 C14.8690625,7.6258125 16.963625,9.7203125 16.963625,12.294875 C16.963625,13.0445 16.7915,13.76025 16.4520625,14.42225 C16.3248125,14.670375 16.422875,14.974875 16.6711875,15.10225 Z" id="Path"></path>
                    <path d="M7.5651875,10.1328125 C7.30125,10.042 7.013875,10.1823125 6.9230625,10.4461875 C6.718875,11.0398125 6.6153125,11.6618125 6.6153125,12.29475 C6.6153125,15.4265 9.1631875,17.9743125 12.294875,17.9743125 C13.4993125,17.9743125 14.6500625,17.6020625 15.6228125,16.897625 C15.8488125,16.7339375 15.899375,16.418 15.73575,16.192 C15.572125,15.966 15.256125,15.9154375 15.030125,16.0790625 C14.230875,16.65775 13.2850625,16.9636875 12.2948125,16.9636875 C9.72025,16.9636875 7.62575,14.869125 7.62575,12.294625 C7.62575,11.77375 7.71075,11.2623125 7.8785,10.77475 C7.96925,10.5109375 7.829,10.2235 7.5651875,10.1328125 Z" id="Path"></path>
                    <path d="M31.027625,22.08225 L29.5665625,21.7900625 C29.4775625,21.52525 29.370375,21.2666875 29.246125,21.01675 L30.07275,19.776875 C30.3914375,19.29875 30.3279375,18.656875 29.921625,18.250625 L29.244125,17.573125 C28.8378125,17.166875 28.1959375,17.1033125 27.717875,17.422 L26.478,18.248625 C26.2280625,18.124375 25.9695,18.0171875 25.7046875,17.92825 L25.4125,16.4671875 C25.2998125,15.90375 24.801,15.4948125 24.2264375,15.4948125 L23.26825,15.4948125 C22.69375,15.4948125 22.194875,15.90375 22.0821875,16.4671875 L21.79,17.92825 C21.5251875,18.01725 21.266625,18.1244375 21.0166875,18.248625 L19.7768125,17.422 C19.2986875,17.103375 18.6568125,17.1668125 18.2505625,17.573125 L17.5730625,18.250625 C17.16675,18.6569375 17.10325,19.2988125 17.4219375,19.776875 L18.2485625,21.01675 C18.0776875,21.360375 17.93925,21.72025 17.83575,22.0903125 C17.7605625,22.3590625 17.9175,22.6378125 18.1861875,22.7130625 C18.4549375,22.78825 18.7336875,22.631375 18.8089375,22.362625 C18.9189375,21.969375 19.0761875,21.59 19.2761875,21.2349375 C19.3695625,21.069125 19.361875,20.8649375 19.256375,20.7066875 L18.2628125,19.216375 C18.210375,19.1376875 18.2208125,19.0320625 18.2876875,18.9651875 L18.9651875,18.2876875 C19.0320625,18.220875 19.1376875,18.2105 19.216375,18.2628125 L20.7066875,19.256375 C20.8649375,19.3619375 21.069125,19.3695625 21.2349375,19.2761875 C21.5900625,19.0761875 21.969375,18.9189375 22.362625,18.8089375 C22.5458125,18.7576875 22.684625,18.608 22.721875,18.4214375 L23.0730625,16.665375 C23.0915625,16.5726875 23.1736875,16.505375 23.26825,16.505375 L24.2264375,16.505375 C24.3209375,16.505375 24.4030625,16.5726875 24.421625,16.665375 L24.7728125,18.4215625 C24.810125,18.608125 24.949,18.7578125 25.1320625,18.8090625 C25.5253125,18.9190625 25.9046875,19.0763125 26.25975,19.2763125 C26.4255,19.3696875 26.62975,19.362 26.788,19.2565 L28.2783125,18.2629375 C28.357,18.2105 28.462625,18.220875 28.5295,18.2878125 L29.207,18.9653125 C29.2738125,19.0321875 29.28425,19.1378125 29.231875,19.2165 L28.2383125,20.7068125 C28.13275,20.865125 28.1250625,21.06925 28.2185,21.2350625 C28.4185,21.5901875 28.57575,21.9695 28.68575,22.36275 C28.737,22.5459375 28.8866875,22.68475 29.07325,22.722 L30.8293125,23.0731875 C30.922,23.0916875 30.9893125,23.1738125 30.9893125,23.268375 L30.9893125,24.2265625 C30.9893125,24.3210625 30.922,24.4031875 30.8293125,24.42175 L29.073125,24.7729375 C28.8865625,24.81025 28.736875,24.949125 28.685625,25.1321875 C28.575625,25.5254375 28.418375,25.9048125 28.218375,26.259875 C28.125,26.4256875 28.1326875,26.629875 28.2381875,26.788125 L29.23175,28.2784375 C29.2841875,28.357125 29.27375,28.46275 29.206875,28.529625 L28.529375,29.207125 C28.4625625,29.274 28.3569375,29.284375 28.2781875,29.232 L26.787875,28.2384375 C26.629625,28.1329375 26.425375,28.12525 26.259625,28.218625 C25.9045,28.418625 25.5251875,28.575875 25.1319375,28.685875 C24.94875,28.737125 24.8099375,28.8868125 24.7726875,29.073375 L24.4215,30.8294375 C24.403,30.922125 24.320875,30.9894375 24.2263125,30.9894375 L23.268125,30.9894375 C23.173625,30.9894375 23.0915,30.922125 23.0729375,30.8294375 L22.72175,29.07325 C22.6844375,28.8866875 22.5455625,28.737 22.3625,28.68575 C21.96925,28.57575 21.589875,28.4185 21.2348125,28.2185 C21.069,28.125125 20.86475,28.1328125 20.7065625,28.2383125 L19.21625,29.231875 C19.1375625,29.2843125 19.0319375,29.2739375 18.9650625,29.207 L18.2875625,28.5295 C18.22075,28.462625 18.2103125,28.357 18.2626875,28.2783125 L19.25625,26.788 C19.3618125,26.6296875 19.3695,26.4255625 19.2760625,26.25975 C19.0760625,25.904625 18.9188125,25.5253125 18.8088125,25.1320625 C18.7575625,24.948875 18.607875,24.8100625 18.4213125,24.7728125 L16.66525,24.421625 C16.5725625,24.403125 16.50525,24.321 16.50525,24.2264375 L16.50525,23.26825 C16.50525,23.17375 16.5725625,23.091625 16.66525,23.0730625 L16.77275,23.0515625 C17.046375,22.9968125 17.223875,22.730625 17.1690625,22.457 C17.1143125,22.183375 16.8484375,22.0061875 16.5744375,22.0606875 L16.4669375,22.0821875 C15.903625,22.1949375 15.4946875,22.69375 15.4946875,23.2683125 L15.4946875,24.2265 C15.4946875,24.801 15.903625,25.299875 16.4670625,25.4125625 L17.928125,25.70475 C18.017125,25.9695625 18.1243125,26.228125 18.2485,26.4780625 L17.421875,27.7179375 C17.103125,28.1960625 17.1666875,28.8379375 17.573,29.2441875 L18.2505,29.9216875 C18.6568125,30.328 19.2986875,30.3915 19.77675,30.0728125 L21.016625,29.2461875 C21.2665625,29.3704375 21.525125,29.477625 21.7899375,29.5665625 L22.082125,31.027625 C22.1949375,31.5910625 22.69375,32 23.2683125,32 L24.2265,32 C24.801,32 25.299875,31.5910625 25.4125625,31.027625 L25.70475,29.5665625 C25.9695625,29.4775625 26.228125,29.370375 26.4780625,29.246125 L27.7179375,30.07275 C28.1960625,30.3914375 28.8379375,30.3279375 29.2441875,29.921625 L29.9216875,29.244125 C30.328,28.8378125 30.3915,28.1959375 30.0728125,27.717875 L29.2461875,26.478 C29.3704375,26.2280625 29.477625,25.9695 29.5665625,25.7046875 L31.027625,25.4125 C31.591,25.2998125 31.9999375,24.801 31.9999375,24.2264375 L31.9999375,23.26825 C31.9999375,22.69375 31.5910625,22.1949375 31.027625,22.08225 Z" id="Path"></path>
                    <path d="M23.747375,21.9284375 C24.750375,21.9284375 25.5663125,22.744375 25.5663125,23.747375 C25.5663125,24.0264375 25.7925625,24.252625 26.0715625,24.252625 C26.3505625,24.252625 26.5768125,24.026375 26.5768125,23.747375 C26.5768125,22.1871875 25.3075,20.917875 23.7473125,20.917875 C22.187125,20.917875 20.9178125,22.1871875 20.9178125,23.747375 C20.9178125,25.3075625 22.187125,26.576875 23.7473125,26.576875 C24.37925,26.576875 24.977,26.3730625 25.476,25.9875625 C25.6968125,25.8169375 25.7375,25.499625 25.5669375,25.27875 C25.3963125,25.0579375 25.0789375,25.0171875 24.858125,25.1878125 C24.537625,25.435375 24.1535,25.5663125 23.7473125,25.5663125 C22.7443125,25.5663125 21.928375,24.750375 21.928375,23.747375 C21.9284375,22.7443125 22.744375,21.9284375 23.747375,21.9284375 Z" id="Path"></path>
                    <path d="M15.3730625,12.29475 C15.3730625,10.597375 13.9920625,9.2164375 12.29475,9.2164375 C10.597375,9.2164375 9.2164375,10.5974375 9.2164375,12.29475 C9.2164375,13.992125 10.597375,15.3730625 12.29475,15.3730625 C13.992125,15.3730625 15.3730625,13.9920625 15.3730625,12.29475 Z M10.2269375,12.29475 C10.2269375,11.154625 11.154625,10.2269375 12.29475,10.2269375 C13.434875,10.2269375 14.3625625,11.154625 14.3625625,12.29475 C14.3625625,13.434875 13.4349375,14.3625625 12.29475,14.3625625 C11.1545,14.3625625 10.2269375,13.434875 10.2269375,12.29475 Z" id="Shape" fill-rule="nonzero"></path>
                </g>
            </g>
        </g>
    </g>
</svg>