<?xml version="1.0" encoding="UTF-8"?>
<svg width="22px" height="21px" viewBox="0 0 22 21" version="1.1" xmlns="http://www.w3.org/2000/svg" xmlns:xlink="http://www.w3.org/1999/xlink">
	<!-- Generator: Sketch 51.1 (57501) - http://www.bohemiancoding.com/sketch -->
	<title>
		84
	</title>
	<desc>
		Created with Sketch.
	</desc>
	<defs>
	</defs>
	<g id="Symbols" stroke="none" stroke-width="1" fill="none" fill-rule="evenodd">
		<g id="LeftNav_On" transform="translate(-19.000000, -144.000000)" fill="#FFFFFF" fill-rule="nonzero">
			<g id="Group-10">
				<g id="84" transform="translate(19.000000, 144.000000)">
					<path d="M2.32222222,17.5144444 L4.27777778,17.5144444 C5.17415556,17.5144444 5.90333333,16.7850222 5.90333333,15.8888889 L5.90333333,10.6333333 C5.90333333,9.7372 5.17415556,9.00802222 4.27777778,9.00802222 L2.32222222,9.00802222 C1.42584444,9.00802222 0.696666667,9.7372 0.696666667,10.6333333 L0.696666667,15.8888889 C0.696666667,16.7850222 1.42584444,17.5144444 2.32222222,17.5144444 Z M1.50333333,10.6333333 C1.50333333,10.1818444 1.87048889,9.81444444 2.32222222,9.81444444 L4.27777778,9.81444444 C4.72951111,9.81444444 5.09666667,10.1818444 5.09666667,10.6333333 L5.09666667,15.8888889 C5.09666667,16.3406222 4.72951111,16.7077778 4.27777778,16.7077778 L2.32222222,16.7077778 C1.87048889,16.7077778 1.50333333,16.3406222 1.50333333,15.8888889 L1.50333333,10.6333333 Z" id="Shape">
					</path>
					<path d="M10.0222222,17.5144444 L11.9777778,17.5144444 C12.8741556,17.5144444 13.6033333,16.7850222 13.6033333,15.8888889 L13.6033333,6.23333333 C13.6033333,5.33695556 12.8741556,4.60777778 11.9777778,4.60777778 L10.0222222,4.60777778 C9.12584444,4.60777778 8.39666667,5.33695556 8.39666667,6.23333333 L8.39666667,15.8888889 C8.39666667,16.7850222 9.12584444,17.5144444 10.0222222,17.5144444 Z M9.20333333,6.23333333 C9.20333333,5.78184444 9.57048889,5.41444444 10.0222222,5.41444444 L11.9777778,5.41444444 C12.4295111,5.41444444 12.7966667,5.78184444 12.7966667,6.23333333 L12.7966667,15.8888889 C12.7966667,16.3406222 12.4295111,16.7077778 11.9777778,16.7077778 L10.0222222,16.7077778 C9.57048889,16.7077778 9.20333333,16.3406222 9.20333333,15.8888889 L9.20333333,6.23333333 Z" id="Shape">
					</path>
					<path d="M17.7222222,17.5144444 L19.6777778,17.5144444 C20.5741556,17.5144444 21.3033333,16.7850222 21.3033333,15.8888889 L21.3033333,1.83333333 C21.3033333,0.936955556 20.5741556,0.207777778 19.6777778,0.207777778 L17.7222222,0.207777778 C16.8258444,0.207777778 16.0966667,0.936955556 16.0966667,1.83333333 L16.0966667,15.8888889 C16.0966667,16.7850222 16.8258444,17.5144444 17.7222222,17.5144444 Z M16.9033333,1.83333333 C16.9033333,1.38184444 17.2704889,1.01444444 17.7222222,1.01444444 L19.6777778,1.01444444 C20.1295111,1.01444444 20.4966667,1.38184444 20.4966667,1.83333333 L20.4966667,15.8888889 C20.4966667,16.3406222 20.1295111,16.7077778 19.6777778,16.7077778 L17.7222222,16.7077778 C17.2704889,16.7077778 16.9033333,16.3406222 16.9033333,15.8888889 L16.9033333,1.83333333 Z" id="Shape">
					</path>
					<path d="M21.5966667,20.0077778 L0.403333333,20.0077778 C0.1804,20.0077778 0,20.1881778 0,20.4111111 C0,20.6340444 0.1804,20.8144444 0.403333333,20.8144444 L21.5966667,20.8144444 C21.8196,20.8144444 22,20.6340444 22,20.4111111 C22,20.1881778 21.8196,20.0077778 21.5966667,20.0077778 Z" id="Shape">
					</path>
				</g>
			</g>
		</g>
	</g>
</svg>
