<?xml version="1.0" encoding="UTF-8"?>
<svg width="25px" height="19px" viewBox="0 0 25 19" version="1.1" xmlns="http://www.w3.org/2000/svg" xmlns:xlink="http://www.w3.org/1999/xlink">
	<!-- Generator: Sketch 50.2 (55047) - http://www.bohemiancoding.com/sketch -->
	<title>
		Group 9
	</title>
	<desc>
		Created with Sketch.
	</desc>
	<defs>
	</defs>
	<g id="20th-JUly" stroke="none" stroke-width="1" fill="none" fill-rule="evenodd">
		<g id="FullView" transform="translate(-64.000000, -111.000000)" fill="#000000">
			<g id="Group-4" transform="translate(64.000000, 111.000000)">
				<g id="Group-9" transform="translate(0.875000, 0.000000)">
					<path d="M11.8443991,3.80526845 L3.39543619,10.7712611 C3.39543619,10.7809552 3.39385808,10.7958345 3.38844743,10.8152227 C3.38416399,10.8346108 3.38145867,10.8485884 3.38145867,10.8591842 L3.38145867,17.9121983 C3.38145867,18.1667245 3.47389069,18.3869832 3.66055828,18.572749 C3.84632409,18.7594166 4.06658283,18.8527504 4.32110906,18.8527504 L9.9641966,18.8527504 L9.9641966,13.2096629 L13.7264053,13.2096629 L13.7264053,18.8527504 L19.368591,18.8527504 C19.6231172,18.8527504 19.843376,18.7594166 20.0291418,18.5736508 C20.2158094,18.387885 20.3091432,18.1667245 20.3091432,17.9121983 L20.3091432,10.8591842 C20.3091432,10.8195061 20.3037325,10.7904238 20.2942639,10.7712611 L11.8443991,3.80526845 Z" id="Fill-1">
					</path>
					<path d="M23.5260029,9.18413568 L20.3082414,6.50969409 L20.3082414,0.514237653 C20.3082414,0.376942286 20.2642798,0.264220311 20.1761313,0.176071726 C20.0879827,0.0881485849 19.9752607,0.0441870144 19.8379653,0.0441870144 L17.0172106,0.0441870144 C16.8799152,0.0441870144 16.7671933,0.0881485849 16.6790447,0.176071726 C16.5911215,0.264220311 16.5469345,0.376942286 16.5469345,0.514237653 L16.5469345,3.37985572 L12.9619248,0.382352941 C12.6483323,0.12782672 12.2758989,0 11.8453009,0 C11.4138012,0 11.0420441,0.12782672 10.728677,0.382352941 L0.162795376,9.18413568 C0.0649527016,9.26259018 0.0112970412,9.36742161 0.00160295129,9.49953177 C-0.00809113861,9.63164193 0.026176342,9.74706923 0.104630837,9.84558824 L1.01519896,10.9322281 C1.09365345,11.0203767 1.19668134,11.0749341 1.32338084,11.0943223 C1.44151347,11.1040164 1.55942065,11.0697489 1.67665151,10.9912944 L11.8443991,2.51257284 L22.013274,10.9912944 C22.0915031,11.0600548 22.1945309,11.0943223 22.3214559,11.0943223 L22.3663192,11.0943223 C22.4930187,11.0749341 22.5953703,11.0203767 22.6745011,10.9322281 L23.585971,9.84468646 C23.6635237,9.74706923 23.698693,9.63164193 23.6880971,9.49953177 C23.678403,9.36742161 23.6238456,9.26259018 23.5260029,9.18413568 Z" id="Fill-3">
					</path>
				</g>
			</g>
		</g>
	</g>
</svg>
