<?xml version="1.0" encoding="UTF-8"?>
<svg width="26px" height="26px" viewBox="0 0 26 26" version="1.1" xmlns="http://www.w3.org/2000/svg" xmlns:xlink="http://www.w3.org/1999/xlink">
	<!-- Generator: Sketch 50.2 (55047) - http://www.bohemiancoding.com/sketch -->
	<title>
		ic_add_circle
	</title>
	<desc>
		Created with Sketch.
	</desc>
	<defs>
	</defs>
	<g id="20th-JUly" stroke="none" stroke-width="1" fill="none" fill-rule="evenodd">
		<g id="AuthCheck" transform="translate(-977.000000, -365.000000)">
			<g id="Group-5" transform="translate(450.000000, 322.000000)">
				<g id="ic_add_circle" transform="translate(540.000000, 56.000000) rotate(-45.000000) translate(-540.000000, -56.000000) translate(525.000000, 41.000000)">
					<polygon id="Bounds" points="0 0 30 0 30 30 0 30">
					</polygon>
					<path d="M15,2.5 C8.1,2.5 2.5,8.1 2.5,15 C2.5,21.9 8.1,27.5 15,27.5 C21.9,27.5 27.5,21.9 27.5,15 C27.5,8.1 21.9,2.5 15,2.5 L15,2.5 Z M21.25,16.25 L16.25,16.25 L16.25,21.25 L13.75,21.25 L13.75,16.25 L8.75,16.25 L8.75,13.75 L13.75,13.75 L13.75,8.75 L16.25,8.75 L16.25,13.75 L21.25,13.75 L21.25,16.25 L21.25,16.25 Z" id="Icon" fill="#000000">
					</path>
				</g>
			</g>
		</g>
	</g>
</svg>
