<?xml version="1.0" encoding="UTF-8"?>
<svg width="35px" height="24px" viewBox="0 0 35 24" version="1.1" xmlns="http://www.w3.org/2000/svg" xmlns:xlink="http://www.w3.org/1999/xlink">
	<!-- Generator: Sketch 51.2 (57519) - http://www.bohemiancoding.com/sketch -->
	<title>
		Group 3
	</title>
	<desc>
		Created with Sketch.
	</desc>
	<defs>
	</defs>
	<g id="Symbols" stroke="none" stroke-width="1" fill="none" fill-rule="evenodd">
		<g id="LeftNav_On" transform="translate(-12.000000, -741.000000)">
			<g id="Group-10">
				<g id="Group-9">
					<g id="Group-3" transform="translate(12.000000, 741.000000)">
						<path d="M21,24 L35,17.5359079 C34.8018306,17.2916338 31.9944037,16.089719 31.5949158,15.8700868 L21.238651,11 L23.6539773,17.6183818 L21.3300514,23.1488136 C21.2094583,23.4436235 21.0765862,23.703366 21,24" id="Fill-5" fill="#FFFFFF">
						</path>
						<path d="M10,15 L13.728415,13.1401101 C14.180153,12.9191685 14.5706239,12.7453344 15.0127532,12.5124309 L16.2222136,11.884048 C16.7134929,11.6437293 19.8355824,10.1471321 20,9.92752551 L11.4568521,5.60384582 C11.1762265,5.46658271 10.4358956,5.05574961 10.2222911,5 C10.2501028,5.32720869 10.5035438,5.93361647 10.6206002,6.27697271 L11.9018954,10.0633092 L10,15 Z" id="Fill-8" fill="#FFFFFF">
						</path>
						<path d="M6,3.97762696 L0.0794289447,1 C0.220091073,1.73790434 1.06290886,3.48446009 1.08566776,4.03064295 C1.09977374,4.37018896 0.163534635,6.45695527 0,7 C0.617330468,6.78991121 5.81575136,4.11310201 6,3.97762696" id="Fill-9" fill="#44A3DF">
						</path>
						<path d="M0.988460839,0.984542356 L6.97718023,3.98727647 C6.79081081,4.12389385 1.53255384,6.82327373 0.908117632,7.03513397 C1.07353462,6.48751033 2.02055024,4.38314854 2.0062819,4.04073949 C1.98326103,3.48995125 1.13074205,1.72866866 0.988460839,0.984542356 Z M0,8 C0.505003495,7.88570232 1.50290634,7.26821561 1.99998085,7.0279671 L6.02598945,5.03455224 C6.34096546,4.88291236 7.86873127,4.1367756 8,3.96262987 C7.37698105,3.64218683 6.66252981,3.3604449 6.06209122,3.00511687 C5.42103096,2.62566346 4.73285645,2.38360927 4.09181534,2.00426755 C3.32291457,1.54919896 0.732703228,0.376754197 0.153868252,0 C0.335181514,0.756375144 1.4989993,3.74935486 1.51391881,4.04744098 L0,8 Z" id="Fill-10" fill="#FFFFFF">
						</path>
					</g>
				</g>
			</g>
		</g>
	</g>
</svg>
