<?xml version="1.0" encoding="UTF-8"?>
<svg width="20px" height="21px" viewBox="0 0 20 21" version="1.1" xmlns="http://www.w3.org/2000/svg" xmlns:xlink="http://www.w3.org/1999/xlink">
	<!-- Generator: Sketch 51.2 (57519) - http://www.bohemiancoding.com/sketch -->
	<title>
		160
	</title>
	<desc>
		Created with Sketch.
	</desc>
	<defs>
	</defs>
	<g id="IBL_Latest_13nd-AUG" stroke="none" stroke-width="1" fill="none" fill-rule="evenodd">
		<g id="User-Mgmt" transform="translate(-20.000000, -206.000000)" fill="#FFFFFF" fill-rule="nonzero">
			<g id="LeftNav_Off">
				<g id="160" transform="translate(20.000000, 206.000000)">
					<path d="M10,6 C7.79471069,6 6,7.79455693 6,10.0001142 C6,12.2056715 7.79471069,14 10,14 C12.2052893,14 14,12.2056715 14,10.0001142 C14,7.79455693 12.2052893,6 10,6 Z M10,13.2725819 C8.19569315,13.2725819 6.72770892,11.8042665 6.72770892,10.0001142 C6.72770892,8.1957335 8.19569315,6.72764657 10,6.72764657 C11.8043068,6.72764657 13.2722911,8.1957335 13.2722911,10.0001142 C13.2722911,11.8042665 11.8043068,13.2725819 10,13.2725819 Z" id="Shape">
					</path>
					<path d="M18.000176,8.97573306 L19.2412166,8.26965855 C19.591369,8.07015634 19.8423234,7.74745275 19.9474401,7.36058178 C20.0523202,6.97347748 19.9992883,6.57003967 19.7968675,6.22516917 L18.6550249,4.27588084 C18.4528409,3.93077701 18.1254164,3.68320759 17.7326491,3.57960644 C17.340592,3.47623862 16.9307787,3.52850587 16.5806263,3.72800809 L15.3393489,4.4340826 C15.1705466,4.53045034 14.8672705,4.50688341 14.7155141,4.38531539 C14.7015459,4.37411527 14.3736479,4.11277903 13.8996756,3.8430427 C13.4311484,3.57563973 13.0324623,3.42443805 13.0158899,3.41813798 C12.8333561,3.34907055 12.6607657,3.1019678 12.6607657,2.90876565 L12.6607657,1.4970833 C12.660529,0.671307459 11.9791641,0 11.1417813,0 L8.85809612,0 C8.02071333,0 7.33934842,0.671307459 7.33934842,1.49684996 L7.33934842,2.90899899 C7.33934842,3.10150113 7.16675808,3.34907055 6.98422425,3.41813798 C6.96765179,3.42443805 6.56896573,3.5761064 6.10043857,3.8430427 C5.62646618,4.11277903 5.2985682,4.37411527 5.28507348,4.38508206 C5.13355384,4.50665007 4.83051455,4.53045034 4.66100194,4.4340826 L3.4192511,3.72754142 C3.06909867,3.52827254 2.66023238,3.47600529 2.2672283,3.5793731 C1.87469772,3.68297426 1.54703649,3.93054367 1.34485246,4.27541417 L0.203009884,6.2247025 C0.000825857054,6.56980633 -0.0524427682,6.97324415 0.0526739856,7.35988178 C0.157790739,7.74721941 0.408745152,8.069923 0.758660832,8.26919188 L1.99993818,8.97549973 C2.16897728,9.07163413 2.29989972,9.3423038 2.2686488,9.53223925 C2.2658078,9.54903943 2.2011752,9.95154391 2.2011752,10.5001167 C2.2011752,11.0486894 2.2658078,11.4507272 2.2686488,11.4675274 C2.29966297,11.6572295 2.16874053,11.9281325 1.99993818,12.0242669 L0.758660832,12.7303414 C0.408508402,12.9296103 0.157790739,13.2525473 0.0526739856,13.6398849 C-0.0524427682,14.0265225 0.000825857054,14.430427 0.203009884,14.7752975 L1.34485246,16.7245858 C1.76389898,17.4390604 2.69408755,17.6845298 3.4197246,17.2724586 L4.66076519,16.5663841 C4.8298043,16.469783 5.13308034,16.4938166 5.28436323,16.6151513 C5.29833145,16.6263514 5.62646618,16.887921 6.10043857,17.1578906 C6.56920248,17.4252936 6.96788854,17.5767286 6.984461,17.5827954 C7.16699483,17.6518628 7.33958517,17.8991989 7.33958517,18.0919344 L7.33958517,19.50315 C7.33958517,20.3282259 8.02095008,21 8.85833287,21 L11.142018,21 C11.9794008,21 12.6607657,20.3282259 12.6607657,19.50315 L12.6607657,18.0919344 C12.6607657,17.8994322 12.8333561,17.6518628 13.0158899,17.5827954 C13.0324623,17.5767286 13.4316219,17.4250603 13.9001491,17.1578906 C14.3743582,16.887921 14.7027297,16.6263514 14.7162244,16.6151513 C14.867744,16.4938166 15.1714936,16.4702497 15.3402959,16.5663841 L16.5806263,17.2719919 C16.9307787,17.4714941 17.3403553,17.5239947 17.7326491,17.4206269 C18.1254164,17.3170257 18.4530776,17.069223 18.6550249,16.7243525 L19.7968675,14.7750642 C19.9990515,14.4299603 20.0523202,14.0267559 19.9474401,13.6401182 C19.8423234,13.2527806 19.5911322,12.9296103 19.2409798,12.7305748 L18.0004127,12.0245003 C17.8313736,11.9283659 17.7004512,11.6579295 17.7314653,11.4677608 C17.7345431,11.4509606 17.7989389,11.0486894 17.7989389,10.50035 C17.7989389,9.95131057 17.7340696,9.54927277 17.7312286,9.53247258 C17.7002144,9.34253714 17.8311369,9.07186747 18.000176,8.97573306 Z M16.9875986,9.64984055 C16.9878353,9.65357393 17.0451287,10.0145446 17.0451287,10.50035 C17.0451287,10.9861554 16.9880721,11.3468927 16.9875986,11.3499261 C16.9075773,11.8406316 17.1871784,12.419538 17.6237443,12.6678074 L18.8645482,13.3736486 C19.040453,13.473983 19.1664037,13.6366182 19.2196724,13.832387 C19.272941,14.0274559 19.2459515,14.2306915 19.1446228,14.4038267 L18.0027802,16.353115 C17.9009779,16.526717 17.7362003,16.6506183 17.5378043,16.7033523 C17.3398818,16.7558528 17.133673,16.7292525 16.9575314,16.6291514 L15.7174378,15.9237769 C15.2813453,15.6750408 14.6326518,15.7259081 14.2415418,16.0388115 C14.2387008,16.0416116 13.942764,16.2765809 13.5237174,16.5150502 C13.1089324,16.7511861 12.7495468,16.8888543 12.7462323,16.8897877 C12.2760479,17.0675896 11.907429,17.5958622 11.907429,18.0921677 L11.907429,19.5033834 C11.907429,19.919188 11.564379,20.2572917 11.1424915,20.2572917 L8.85880636,20.2572917 C8.43691885,20.2572917 8.09386891,19.919188 8.09386891,19.5033834 L8.09386891,18.0921677 C8.09386891,17.5958622 7.72548677,17.0673563 7.25506562,16.8895543 C7.25127763,16.8881543 6.89591671,16.7532861 6.47781719,16.5150502 C6.05877067,16.2765809 5.76283386,16.0416116 5.76022962,16.0388115 C5.36888279,15.7259081 4.71995256,15.6748075 4.28457033,15.9237769 L3.44647729,16.4002489 L3.44837128,16.4039823 C3.37213796,16.4431827 3.25210599,16.5110835 3.04376648,16.6293848 C2.67775184,16.8375204 2.20922469,16.7133857 1.99851768,16.353815 L0.856675103,14.4045267 C0.755109591,14.2309248 0.728356903,14.0276892 0.781625529,13.8326204 C0.834657404,13.6368515 0.960844859,13.4742164 1.13651295,13.3738819 C1.36923765,13.2418138 1.48050989,13.1788131 1.53851351,13.1438127 L1.53922375,13.1449794 L2.37660654,12.6678074 C2.81317252,12.419538 3.09230012,11.8403982 3.01251555,11.3503928 C3.01204206,11.3468927 2.95498544,10.9859221 2.95498544,10.50035 C2.95498544,10.0145446 3.01204206,9.65334059 3.01251555,9.65030723 C3.09277362,9.15960177 2.81340927,8.58069534 2.37660654,8.33242592 C1.61048534,7.89632107 1.53661951,7.8543206 1.53661951,7.8543206 C1.53661951,7.8543206 1.53732976,7.85502061 1.53827676,7.85548728 L1.1353292,7.62611807 C0.959661112,7.52625029 0.833473657,7.36338182 0.780441781,7.16784631 C0.727173156,6.97254414 0.754162593,6.76954188 0.855491356,6.59593995 L1.99733393,4.64665163 C2.09889944,4.47351637 2.26367706,4.34914832 2.46230984,4.29688108 C2.66023238,4.24438049 2.86644115,4.27098079 3.04210924,4.37038189 L4.28386008,5.07692308 C4.7206628,5.32542584 5.36864604,5.27479194 5.75951937,4.96165513 C5.76259711,4.95908843 6.05806042,4.72481916 6.47734369,4.48588318 C6.89165522,4.24974722 7.25080413,4.11231236 7.25388187,4.11137902 C7.72406627,3.93357704 8.09268516,3.40577118 8.09268516,2.90899899 L8.09268516,1.49684996 C8.09268516,1.08104534 8.4357351,0.742708252 8.85762262,0.742708252 L11.1413078,0.742708252 C11.5631953,0.742708252 11.9062452,1.08104534 11.9062452,1.49684996 L11.9062452,2.90853232 C11.9062452,3.4053045 12.2748641,3.93357704 12.7448118,4.11114568 C12.7485998,4.11254569 13.1075119,4.24974722 13.5220602,4.48564984 C13.9411067,4.72435249 14.2368068,4.9588551 14.2396478,4.96142179 C14.6302843,5.27455861 15.2794513,5.32542584 15.7153071,5.07692308 L16.9565844,4.3710819 C17.1322525,4.27074745 17.337751,4.24438049 17.5368573,4.29711441 C17.7352533,4.34938166 17.9000309,4.47351637 18.0015965,4.64665163 L19.143439,6.59593995 C19.2450045,6.76954188 19.2717572,6.97277748 19.2184886,7.16784631 C19.16522,7.36338182 19.0392693,7.52625029 18.8633644,7.62611807 L17.6232708,8.33242592 C17.1867049,8.58069534 16.9073405,9.15960177 16.9875986,9.64984055 Z" id="Shape">
					</path>
				</g>
			</g>
		</g>
	</g>
</svg>
