<?xml version="1.0" encoding="UTF-8"?>
<svg width="22px" height="28px" viewBox="0 0 22 28" version="1.1" xmlns="http://www.w3.org/2000/svg" xmlns:xlink="http://www.w3.org/1999/xlink">
	<!-- Generator: Sketch 51.1 (57501) - http://www.bohemiancoding.com/sketch -->
	<title>
		136
	</title>
	<desc>
		Created with Sketch.
	</desc>
	<defs>
	</defs>
	<g id="Symbols" stroke="none" stroke-width="1" fill="none" fill-rule="evenodd">
		<g id="LeftNav_Off" transform="translate(-19.000000, -79.000000)" fill="#FFFFFF" fill-rule="nonzero">
			<g id="136">
				<g transform="translate(19.000000, 79.000000)">
					<path d="M4.94663889,10.4845278 C5.16236111,10.8078056 5.48716667,11.0018333 5.83886111,11.0171111 C5.85413889,11.0180278 5.86880556,11.0180278 5.88347222,11.0180278 C6.21866667,11.0180278 6.54102778,10.85425 6.77386111,10.5633611 L8.86508333,7.94963889 C9.03313889,7.73941667 8.99891667,7.43386111 8.78930556,7.26580556 C8.57908333,7.09836111 8.27352778,7.13197222 8.10577778,7.34188889 L6.01455556,9.95591667 C5.96933333,10.0130556 5.92166667,10.0506389 5.88072222,10.04575 C5.84405556,10.0439167 5.79608333,10.0057222 5.75575,9.94522222 L5.04258333,8.87486111 C4.89377778,8.6515 4.59127778,8.59069444 4.36822222,8.73980556 C4.14455556,8.88861111 4.08405556,9.19080556 4.23316667,9.41447222 L4.94663889,10.4845278 Z" id="Shape">
					</path>
					<path d="M10.74975,9.96233333 L16.4083333,9.96233333 C16.6772222,9.96233333 16.8950833,9.74477778 16.8950833,9.47588889 C16.8950833,9.20761111 16.6772222,8.98975 16.4083333,8.98975 L10.7494444,8.98975 C10.4805556,8.98975 10.2626944,9.20761111 10.2626944,9.47588889 C10.263,9.74508333 10.4808611,9.96233333 10.74975,9.96233333 Z" id="Shape">
					</path>
					<path d="M8.78961111,13.0133056 C8.57938889,12.8455556 8.27383333,12.8794722 8.10608333,13.0890833 L6.01486111,15.7034167 C5.96963889,15.7605556 5.91586111,15.7938611 5.88102778,15.7926389 C5.84436111,15.7908056 5.79638889,15.7523056 5.75605556,15.6921111 L5.04288889,14.6223611 C4.89347222,14.3983889 4.59158333,14.3385 4.36852778,14.487 C4.14486111,14.6361111 4.08436111,14.938 4.23377778,15.1619722 L4.94694444,16.2314167 C5.16266667,16.555 5.48777778,16.7496389 5.83916667,16.7643056 C5.85444444,16.7652222 5.86911111,16.7658333 5.88377778,16.7658333 C6.21927778,16.7658333 6.54163889,16.60175 6.77416667,16.3108611 L8.86538889,13.6974444 C9.03313889,13.4869167 8.99922222,13.1810556 8.78961111,13.0133056 Z" id="Shape">
					</path>
					<path d="M10.74975,15.7101389 L16.4083333,15.7101389 C16.6772222,15.7101389 16.8950833,15.4925833 16.8950833,15.2236944 C16.8950833,14.9548056 16.6772222,14.73725 16.4083333,14.73725 L10.7494444,14.73725 C10.4805556,14.73725 10.2626944,14.9548056 10.2626944,15.2236944 C10.2626944,15.4925833 10.4808611,15.7101389 10.74975,15.7101389 Z" id="Shape">
					</path>
					<path d="M4.94663889,21.9789167 C5.16236111,22.3021944 5.48747222,22.4968333 5.83886111,22.5118056 C5.85413889,22.5124167 5.86880556,22.5130278 5.88347222,22.5130278 C6.21866667,22.5130278 6.54133333,22.3489444 6.77386111,22.0583611 L8.86508333,19.4440278 C9.03313889,19.2344167 8.99891667,18.92825 8.78930556,18.7608056 C8.57908333,18.5924444 8.27352778,18.6266667 8.10577778,18.8362778 L6.01455556,21.4512222 C5.96933333,21.5080556 5.91555556,21.5438056 5.88072222,21.5401389 C5.84405556,21.5386111 5.79608333,21.4998056 5.75575,21.4393056 L5.04258333,20.36925 C4.89377778,20.1461944 4.59127778,20.0856944 4.36822222,20.2348056 C4.14455556,20.3833056 4.08405556,20.6858056 4.23316667,20.9091667 L4.94663889,21.9789167 Z" id="Shape">
					</path>
					<path d="M10.74975,21.4579444 L16.4083333,21.4579444 C16.6772222,21.4579444 16.8950833,21.2403889 16.8950833,20.9715 C16.8950833,20.7026111 16.6772222,20.48475 16.4083333,20.48475 L10.7494444,20.48475 C10.4805556,20.48475 10.2626944,20.7026111 10.2626944,20.9715 C10.2626944,21.2403889 10.4808611,21.4579444 10.74975,21.4579444 Z" id="Shape">
					</path>
					<path d="M3.63152778,27.5 L18.3684722,27.5 C20.262,27.5 21.8023056,25.9593889 21.8023056,24.0661667 L21.8023056,5.64483333 C21.8023056,3.75130556 20.262,2.21069444 18.3684722,2.21069444 L17.3790833,2.21069444 C17.35525,0.987861111 16.3545556,0 15.1265278,0 L6.87347222,0 C5.64483333,0 4.64475,0.987861111 4.62091667,2.21038889 L3.63152778,2.21038889 C1.738,2.21038889 0.197694444,3.751 0.197694444,5.64452778 L0.197694444,24.0658611 C0.197388889,25.9593889 1.738,27.5 3.63152778,27.5 Z M5.59166667,2.255 C5.59166667,1.54825 6.16672222,0.972888889 6.87347222,0.972888889 L15.1265278,0.972888889 C15.8332778,0.972888889 16.4083333,1.54825 16.4083333,2.255 L16.4083333,3.13927778 C16.4083333,3.84602778 15.8332778,4.42138889 15.1265278,4.42138889 L6.87347222,4.42138889 C6.16672222,4.42138889 5.59166667,3.84602778 5.59166667,3.13927778 L5.59166667,2.255 Z M1.17027778,5.64483333 C1.17027778,4.28786111 2.27425,3.18358333 3.63152778,3.18358333 L4.62091667,3.18358333 C4.64475,4.40611111 5.64513889,5.39397222 6.87347222,5.39397222 L15.1265278,5.39397222 C16.3548611,5.39397222 17.35525,4.40611111 17.3790833,3.18358333 L18.3684722,3.18358333 C19.72575,3.18358333 20.8297222,4.28755556 20.8297222,5.64483333 L20.8297222,24.0661667 C20.8297222,25.4231389 19.7260556,26.5274167 18.3684722,26.5274167 L3.63152778,26.5274167 C2.27455556,26.5274167 1.17027778,25.4234444 1.17027778,24.0661667 L1.17027778,5.64483333 Z" id="Shape">
					</path>
				</g>
			</g>
		</g>
	</g>
</svg>
