<?xml version="1.0" encoding="UTF-8"?>
<svg width="48px" height="48px" viewBox="-5 -5 53 53" version="1.1" xmlns="http://www.w3.org/2000/svg" xmlns:xlink="http://www.w3.org/1999/xlink">
    <!-- Generator: Sketch 55 (78076) - https://sketchapp.com -->
    <title>ico-decision-table</title>
    <desc>Created with Sketch.</desc>
    <g id="Page-1" stroke="none" stroke-width="1" fill="none" fill-rule="evenodd">
        <g id="A4" transform="translate(-1264.000000, -677.000000)" fill="#fff" fill-rule="nonzero">
            <g id="Angular-BPMN-+-Rectangle-+-ico-algorithm-+-ico-rule-+-ico-score-+-ico-support-+-ico-decision-tree-+-ico-decision-table-+-ico-variables-Mask" transform="translate(1132.000000, 163.000000)">
                <g id="ico-decision-table" transform="translate(132.000000, 514.000000)">
                    <path d="M19.0516993,0.0599495943 L3.86431299,0.0599495943 C1.73332361,0.0599495943 2.70310123e-16,1.75774429 2.70310123e-16,3.84433806 L2.70310123e-16,7.1043136 C2.70310123e-16,7.72127005 0.510605313,8.22123776 1.14009427,8.22123776 C1.77017747,8.22123776 2.2801884,7.72127005 2.2801884,7.1043136 L2.2801884,3.84433806 C2.2801884,2.98874737 2.99111262,2.29321606 3.86490752,2.29321606 L19.0516993,2.29321606 C19.925494,2.29321606 20.6364183,2.98874737 20.6364183,3.84433806 L20.6364183,18.7147383 C20.6364183,19.5703292 19.925494,20.2664425 19.0516993,20.2664425 L3.86490752,20.2664425 C2.99111262,20.2664425 2.2801884,19.5703292 2.2801884,18.7147383 L2.2801884,12.1726702 C2.2801884,11.5562957 1.77017747,11.056328 1.14009427,11.056328 C0.510605313,11.056328 0,11.5562957 0,12.1726702 L0,18.7147383 C0,20.8013322 1.73332361,22.4991269 3.86431299,22.4991269 L19.0516993,22.4991269 C21.1826887,22.4991269 22.9166067,20.8013322 22.9166067,18.7147383 L22.9166067,3.84433806 C22.9166067,1.75774429 21.1826887,0.0599495943 19.0516993,0.0599495943 Z" id="Path"></path>
                    <path d="M44.0838405,0.0599495943 L28.8964542,0.0599495943 C26.7654649,0.0599495943 25.0321412,1.75774429 25.0321412,3.84433806 L25.0321412,7.1043136 C25.0321412,7.72127005 25.5427466,8.22123776 26.1722355,8.22123776 C26.8023187,8.22123776 27.3123296,7.72127005 27.3123296,7.1043136 L27.3123296,3.84433806 C27.3123296,2.98874737 28.0232539,2.29321606 28.8970488,2.29321606 L44.0838405,2.29321606 C44.9576353,2.29321606 45.6685595,2.98874737 45.6685595,3.84433806 L45.6685595,18.7147383 C45.6685595,19.5703292 44.9576353,20.2664425 44.0838405,20.2664425 L28.8970488,20.2664425 C28.0232539,20.2664425 27.3123296,19.5703292 27.3123296,18.7147383 L27.3123296,12.1726702 C27.3123296,11.5562957 26.8023187,11.056328 26.1722355,11.056328 C25.5427466,11.056328 25.0321412,11.5562957 25.0321412,12.1726702 L25.0321412,18.7147383 C25.0321412,20.8013322 26.7654649,22.4991269 28.8964542,22.4991269 L44.0838405,22.4991269 C46.2148299,22.4991269 47.9487479,20.8013322 47.9487479,18.7147383 L47.9487479,3.84433806 C47.9487479,1.75774429 46.2148299,0.0599495943 44.0838405,0.0599495943 Z" id="Path-Copy" transform="translate(36.490445, 11.279538) scale(-1, 1) translate(-36.490445, -11.279538) "></path>
                    <path d="M19.0516993,24.5705879 L3.86431299,24.5705879 C1.73332361,24.5705879 -1.57169014e-14,26.2683826 -1.57169014e-14,28.3549764 L-1.57169014e-14,31.6149519 C-1.57169014e-14,32.2319084 0.510605313,32.7318761 1.14009427,32.7318761 C1.77017747,32.7318761 2.2801884,32.2319084 2.2801884,31.6149519 L2.2801884,28.3549764 C2.2801884,27.4993857 2.99111262,26.8038544 3.86490752,26.8038544 L19.0516993,26.8038544 C19.925494,26.8038544 20.6364183,27.4993857 20.6364183,28.3549764 L20.6364183,43.2253766 C20.6364183,44.0809675 19.925494,44.7770808 19.0516993,44.7770808 L3.86490752,44.7770808 C2.99111262,44.7770808 2.2801884,44.0809675 2.2801884,43.2253766 L2.2801884,36.6833085 C2.2801884,36.066934 1.77017747,35.5669663 1.14009427,35.5669663 C0.510605313,35.5669663 -1.59872116e-14,36.066934 -1.59872116e-14,36.6833085 L-1.59872116e-14,43.2253766 C-1.59872116e-14,45.3119705 1.73332361,47.0097652 3.86431299,47.0097652 L19.0516993,47.0097652 C21.1826887,47.0097652 22.9166067,45.3119705 22.9166067,43.2253766 L22.9166067,28.3549764 C22.9166067,26.2683826 21.1826887,24.5705879 19.0516993,24.5705879 Z" id="Path-Copy-3" opacity="0.4"></path>
                    <path d="M44.0838405,24.5705879 L28.8964542,24.5705879 C26.7654649,24.5705879 25.0321412,26.2683826 25.0321412,28.3549764 L25.0321412,31.6149519 C25.0321412,32.2319084 25.5427466,32.7318761 26.1722355,32.7318761 C26.8023187,32.7318761 27.3123296,32.2319084 27.3123296,31.6149519 L27.3123296,28.3549764 C27.3123296,27.4993857 28.0232539,26.8038544 28.8970488,26.8038544 L44.0838405,26.8038544 C44.9576353,26.8038544 45.6685595,27.4993857 45.6685595,28.3549764 L45.6685595,43.2253766 C45.6685595,44.0809675 44.9576353,44.7770808 44.0838405,44.7770808 L28.8970488,44.7770808 C28.0232539,44.7770808 27.3123296,44.0809675 27.3123296,43.2253766 L27.3123296,36.6833085 C27.3123296,36.066934 26.8023187,35.5669663 26.1722355,35.5669663 C25.5427466,35.5669663 25.0321412,36.066934 25.0321412,36.6833085 L25.0321412,43.2253766 C25.0321412,45.3119705 26.7654649,47.0097652 28.8964542,47.0097652 L44.0838405,47.0097652 C46.2148299,47.0097652 47.9487479,45.3119705 47.9487479,43.2253766 L47.9487479,28.3549764 C47.9487479,26.2683826 46.2148299,24.5705879 44.0838405,24.5705879 Z" id="Path-Copy-2" transform="translate(36.490445, 35.790177) scale(-1, 1) translate(-36.490445, -35.790177) "></path>
                    <path d="M8.67173256,15.9686995 C8.9679881,15.9686995 9.25202095,15.8511284 9.46097139,15.641596 L16.6060273,8.4965402 C17.0419712,8.06059622 17.0419712,7.35400637 16.6060273,6.91806255 C16.1700835,6.48211857 15.4629115,6.48211857 15.0269675,6.91806255 L8.67173256,13.2732975 L7.41162783,12.0131928 C6.97568385,11.577249 6.269094,11.577249 5.83256803,12.0131928 C5.3966242,12.4497188 5.3966242,13.1563086 5.83256803,13.5922524 L7.88191173,15.641596 C8.09144417,15.8511284 8.37547702,15.9686995 8.67173256,15.9686995 L8.67173256,15.9686995 Z" id="Path"></path>
                    <path d="M41.6363578,31.3150746 C41.2004139,30.8791308 40.493824,30.8791308 40.0578802,31.3150746 L36.6721852,34.7007696 L33.2864903,31.3150746 C32.8505465,30.8791308 32.1433745,30.8791308 31.7074307,31.3150746 C31.2714868,31.7510186 31.2714868,32.4576084 31.7074307,32.8941344 L35.0931255,36.2792473 L31.7074307,39.6649421 C31.2714868,40.1014679 31.2714868,40.8080579 31.7074307,41.2440018 C31.9256935,41.4616828 32.2114725,41.5711053 32.4972515,41.5711053 C32.7830305,41.5711053 33.0682273,41.4616828 33.2864903,41.2440018 L36.6721852,37.8583069 L40.0578802,41.2440018 C40.275561,41.4616828 40.56134,41.5711053 40.8471189,41.5711053 C41.1328978,41.5711053 41.4186768,41.4616828 41.6369398,41.2440018 C42.0728837,40.8080579 42.0728837,40.1014679 41.6369398,39.6649421 L38.251245,36.2792473 L41.6369398,32.8941344 C42.0723017,32.4581906 42.0723017,31.7510186 41.6363578,31.3150746 L41.6363578,31.3150746 Z" id="Path"></path>
                </g>
            </g>
        </g>
    </g>
</svg>