<?xml version="1.0" encoding="UTF-8"?>
<svg width="48px" height="48px" viewBox="-5 -5 53 53" version="1.1" xmlns="http://www.w3.org/2000/svg" xmlns:xlink="http://www.w3.org/1999/xlink">
    <!-- Generator: Sketch 55 (78076) - https://sketchapp.com -->
    <title>ico-algorithm</title>
    <desc>Created with Sketch.</desc>
    <g id="Page-1" stroke="none" stroke-width="1" fill="none" fill-rule="evenodd">
        <g id="A4" transform="translate(-1173.000000, -587.000000)" fill="#fff" fill-rule="nonzero">
            <g id="Angular-BPMN-+-Rectangle-+-ico-algorithm-+-ico-rule-+-ico-score-+-ico-support-+-ico-decision-tree-+-ico-decision-table-+-ico-variables-Mask" transform="translate(1132.000000, 163.000000)">
                <g id="ico-algorithm" transform="translate(41.000000, 424.000000)">
                    <path d="M47.7106933,38.0050049 L44.8494873,33.0490723 C44.6304932,32.670044 44.3133545,32.3778076 43.9390869,32.1958008 L43.9390869,29.1694336 C43.9390869,28.6519776 43.519043,28.2319336 43.0015869,28.2319336 L37.6069336,28.2319336 C37.0891114,28.2319336 36.6694336,28.6519776 36.6694336,29.1694336 C36.6694336,29.6872558 37.0891114,30.1069336 37.6069336,30.1069336 L42.0640869,30.1069336 L42.0640869,32.1954346 C41.6898193,32.3778076 41.3723145,32.6696777 41.1533203,33.048706 L38.2921143,38.0050049 C37.9064942,38.6729737 37.9064942,39.4709473 38.2921143,40.1389161 C38.6777344,40.8068848 39.3684082,41.2056885 40.1400146,41.2056885 L42.0640869,41.2056885 L42.0640869,43.0803223 L28.680542,43.0803223 C28.5600586,40.6025391 26.5063477,38.6235352 23.9989013,38.6235352 C21.4145508,38.6235352 19.3117676,40.7263183 19.3117676,43.310669 C19.3117676,45.8953857 21.4145508,47.998169 23.9989013,47.998169 C26.0050049,47.998169 27.7203369,46.7310791 28.3879395,44.9553223 L43.0012207,44.9553223 C43.519043,44.9553223 43.9387207,44.5356445 43.9387207,44.0178223 L43.9387207,41.2056885 L45.862793,41.2056885 C46.6340332,41.2056885 47.3250732,40.8068848 47.7106933,40.1389161 C48.0963135,39.4709473 48.0963135,38.6729737 47.7106933,38.0050049 L47.7106933,38.0050049 Z M23.9989013,46.123169 C22.4483643,46.123169 21.1867676,44.8615723 21.1867676,43.310669 C21.1867676,41.7601318 22.4483643,40.4985352 23.9989013,40.4985352 C25.5498047,40.4985352 26.8114013,41.7601318 26.8114013,43.310669 C26.8114013,44.8615723 25.5498047,46.123169 23.9989013,46.123169 L23.9989013,46.123169 Z M46.0869141,39.2014161 C46.0528565,39.260376 45.986206,39.3310547 45.862793,39.3310547 L40.1400146,39.3310547 C40.0162354,39.3310547 39.9495849,39.260376 39.9155273,39.2014161 C39.8814697,39.142456 39.8536377,39.0494385 39.9155273,38.9425049 L42.7770996,33.9865723 C42.838623,33.8792724 42.9331055,33.8569336 43.0012207,33.8569336 C43.0693359,33.8569336 43.1634521,33.8796386 43.2253417,33.9865723 L46.0869141,38.9425049 C46.1488037,39.0494385 46.1209717,39.142456 46.0869141,39.2014161 L46.0869141,39.2014161 Z" id="Shape" opacity="0.5"></path>
                    <path d="M18.4401855,30.1069336 L23.3360596,35.0031739 C23.5191651,35.1862792 23.7590333,35.2774658 23.9989013,35.2774658 C24.2391357,35.2774658 24.4790039,35.1862792 24.6621094,35.0031739 L29.8322754,29.8326416 C30.1984864,29.4664307 30.1984864,28.8728027 29.8322754,28.5065917 L24.9364013,23.6107177 L24.9364013,20.6242676 L29.6239013,20.6242676 C30.1413574,20.6242676 30.5614013,20.2045898 30.5614013,19.6867676 L30.5614013,12.9371338 C30.5614013,12.4193115 30.1413574,11.9996338 29.6239013,11.9996338 L24.9364013,11.9996338 L24.9364013,8.62463381 L29.6239013,8.62463381 C30.1413574,8.62463381 30.5614013,8.20495603 30.5614013,7.68713381 L30.5614013,0.9375 C30.5614013,0.419677687 30.1413574,-5.68434189e-14 29.6239013,-5.68434189e-14 L18.3742676,-5.68434189e-14 C17.8564453,-5.68434189e-14 17.4367676,0.419677687 17.4367676,0.9375 L17.4367676,7.68713381 C17.4367676,8.20495603 17.8564453,8.62463381 18.3742676,8.62463381 L23.0617676,8.62463381 L23.0617676,11.9996338 L18.3742676,11.9996338 C17.8564453,11.9996338 17.4367676,12.4193115 17.4367676,12.9371338 L17.4367676,15.3742676 L4.6875,15.3742676 C4.16967769,15.3742676 3.75,15.7939453 3.75,16.3117676 L3.75,24.4822998 L0.9375,24.4822998 C0.419677688,24.4822998 2.84217094e-14,24.9019776 2.84217094e-14,25.4197998 L2.84217094e-14,32.9194336 C2.84217094e-14,33.4372558 0.419677688,33.8569336 0.9375,33.8569336 L8.43713381,33.8569336 C8.95495603,33.8569336 9.37463381,33.4372558 9.37463381,32.9194336 L9.37463381,30.1069336 L18.4401855,30.1069336 Z M19.3117676,1.875 L28.6864013,1.875 L28.6864013,6.74963381 L19.3117676,6.74963381 L19.3117676,1.875 Z M23.9989013,33.0142822 L20.154419,29.1697998 L23.9989013,25.3249511 L27.84375,29.1694336 L23.9989013,33.0142822 Z M19.3117676,13.8746338 L28.6864013,13.8746338 L28.6864013,18.7492676 L19.3117676,18.7492676 L19.3117676,13.8746338 Z M5.62463381,17.2492676 L17.4367676,17.2492676 L17.4367676,19.6867676 C17.4367676,20.2045898 17.8564453,20.6242676 18.3742676,20.6242676 L23.0617676,20.6242676 L23.0617676,23.6107177 L18.4401855,28.2319336 L9.37463381,28.2319336 L9.37463381,25.4197998 C9.37463381,24.9019776 8.95495603,24.4822998 8.43713381,24.4822998 L5.62463381,24.4822998 L5.62463381,17.2492676 Z M7.49963381,31.9819336 L1.875,31.9819336 L1.875,26.3572998 L7.49963381,26.3572998 L7.49963381,31.9819336 Z" id="Shape"></path>
                    <path d="M33.3878174,30.1065674 C33.635376,30.1065674 33.8759766,30.0073242 34.0513916,29.8330078 C34.225708,29.6575928 34.3260498,29.416626 34.3260498,29.1701661 C34.3260498,28.9226074 34.225708,28.6809083 34.0513916,28.5062256 C33.8759766,28.3319092 33.635376,28.2315674 33.3878174,28.2315674 C33.1409912,28.2315674 32.899292,28.3319092 32.7249756,28.5062256 C32.5506592,28.6809083 32.4503174,28.9226074 32.4503174,29.1701661 C32.4503174,29.416626 32.5506592,29.6575928 32.7249756,29.8330078 C32.899292,30.0073242 33.1413574,30.1065674 33.3878174,30.1065674 Z" id="Path"></path>
                </g>
            </g>
        </g>
    </g>
</svg>