<?xml version="1.0" encoding="UTF-8"?>
<svg width="32px" height="32px" viewBox="0 0 32 32" version="1.1" xmlns="http://www.w3.org/2000/svg" xmlns:xlink="http://www.w3.org/1999/xlink">
    <!-- Generator: Sketch 55.2 (78181) - https://sketchapp.com -->
    <title>ico-parameter</title>
    <desc>Created with Sketch.</desc>
    <g id="ico-parameter" stroke="none" stroke-width="1" fill="none" fill-rule="evenodd">
        <g id="controls" transform="translate(4.000000, 4.000000)" fill="#FFFFFF" fill-rule="nonzero">
            <path d="M3.42857143,17.1771429 L3.42857143,0.428571429 C3.42857143,0.191571429 3.23657143,0 3,0 C2.76342857,0 2.57142857,0.191571429 2.57142857,0.428571429 L2.57142857,17.1771429 C1.11985714,17.3862857 0,18.6347143 0,20.1428571 C0,21.7967143 1.34571429,23.1428571 3,23.1428571 C4.65428571,23.1428571 6,21.7967143 6,20.1428571 C6,18.6347143 4.88014286,17.3862857 3.42857143,17.1771429 Z M3,22.2857143 C1.81842857,22.2857143 0.857142857,21.3244286 0.857142857,20.1428571 C0.857142857,18.9612857 1.81842857,18 3,18 C4.18157143,18 5.14285714,18.9612857 5.14285714,20.1428571 C5.14285714,21.3244286 4.18157143,22.2857143 3,22.2857143 Z" id="Shape"></path>
            <path d="M12.4285714,8.44071429 L12.4285714,0.428571429 C12.4285714,0.191571429 12.2365714,0 12,0 C11.7634286,0 11.5714286,0.191571429 11.5714286,0.428571429 L11.5714286,8.41371429 C10.0277143,8.58342857 8.82257143,9.89485714 8.82257143,11.4827143 C8.82257143,13.0705714 10.0277143,14.382 11.5714286,14.5517143 L11.5714286,22.7142857 C11.5714286,22.9512857 11.7634286,23.1428571 12,23.1428571 C12.2365714,23.1428571 12.4285714,22.9512857 12.4285714,22.7142857 L12.4285714,14.5247143 C13.8857143,14.2774286 15,13.0092857 15,11.4827143 C15,9.95614286 13.8857143,8.688 12.4285714,8.44071429 Z M11.9112857,13.7142857 C10.6808571,13.7142857 9.67971429,12.7131429 9.67971429,11.4827143 C9.67971429,10.2522857 10.6804286,9.25114286 11.9112857,9.25114286 C13.1421429,9.25114286 14.1428571,10.2522857 14.1428571,11.4827143 C14.1428571,12.7131429 13.1417143,13.7142857 11.9112857,13.7142857 Z" id="Shape"></path>
            <path d="M24,3 C24,1.34614286 22.6542857,0 21,0 C19.3457143,0 18,1.34614286 18,3 C18,4.50814286 19.1198571,5.75657143 20.5714286,5.96571429 L20.5714286,22.7142857 C20.5714286,22.9512857 20.7634286,23.1428571 21,23.1428571 C21.2365714,23.1428571 21.4285714,22.9512857 21.4285714,22.7142857 L21.4285714,5.96571429 C22.8801429,5.75657143 24,4.50814286 24,3 Z M21,5.14285714 C19.8184286,5.14285714 18.8571429,4.18157143 18.8571429,3 C18.8571429,1.81842857 19.8184286,0.857142857 21,0.857142857 C22.1815714,0.857142857 23.1428571,1.81842857 23.1428571,3 C23.1428571,4.18157143 22.1815714,5.14285714 21,5.14285714 Z" id="Shape"></path>
        </g>
    </g>
</svg>