<?xml version="1.0" encoding="UTF-8"?>
<svg width="57px" height="53px" viewBox="-5 -5 62 58" version="1.1" xmlns="http://www.w3.org/2000/svg" xmlns:xlink="http://www.w3.org/1999/xlink">
    <!-- Generator: Sketch 55 (78076) - https://sketchapp.com -->
    <title>ico-support</title>
    <desc>Created with Sketch.</desc>
    <g id="Page-1" stroke="none" stroke-width="1" fill="none" fill-rule="evenodd">
        <g id="A4" transform="translate(-1265.000000, -769.000000)" fill="#fff" fill-rule="nonzero">
            <g id="Angular-BPMN-+-Rectangle-+-ico-algorithm-+-ico-rule-+-ico-score-+-ico-support-+-ico-decision-tree-+-ico-decision-table-+-ico-variables-Mask" transform="translate(1132.000000, 163.000000)">
                <g id="ico-support" transform="translate(133.000000, 606.000000)">
                    <path d="M4,48 L40,48 C40.4417969,48 40.8,47.6417969 40.8,47.2 L40.8,26.4 L39.2,26.4 L39.2,46.4 L4,46.4 C2.6746094,46.4 1.6,45.3253906 1.6,44 C1.6,42.6746094 2.6746094,41.6 4,41.6 L5.6,41.6 C6.0417969,41.6 6.4,41.2417969 6.4,40.8 L6.4,16.8 L19.2,16.8 L19.2,15.2 L6.4,15.2 L6.4,9.6 C6.4,9.1582031 6.0417969,8.8 5.6,8.8 L4,8.8 C1.7917969,8.8027344 0.00273438,10.5917969 0,12.8 L0,44 C0.00273438,46.2082031 1.7917969,47.9972656 4,48 Z M1.6,16 L1.6,12.8 C1.6,11.4746094 2.6746094,10.4 4,10.4 L4.8,10.4 L4.8,40 L4,40 C3.134375,39.9988281 2.2917969,40.2796875 1.6,40.8 L1.6,16 Z" id="Shape"></path>
                    <path d="M18.4,19.2 L8.8,19.2 C8.3582031,19.2 8,19.5582031 8,20 L8,26.4 C8,26.8417969 8.3582031,27.2 8.8,27.2 L18.4,27.2 C18.8417969,27.2 19.2,26.8417969 19.2,26.4 L19.2,24 L22.4,24 L22.4,22.4 L19.2,22.4 L19.2,20 C19.2,19.5582031 18.8417969,19.2 18.4,19.2 Z M17.6,25.6 L9.6,25.6 L9.6,20.8 L17.6,20.8 L17.6,25.6 Z" id="Shape"></path>
                    <path d="M26.4,41.6 L36,41.6 C36.4417969,41.6 36.8,41.2417969 36.8,40.8 L36.8,34.4 C36.8,33.9582031 36.4417969,33.6 36,33.6 L32,33.6 L32,28.8 L30.4,28.8 L30.4,33.6 L26.4,33.6 C25.9582031,33.6 25.6,33.9582031 25.6,34.4 L25.6,36.8 L19.2,36.8 L19.2,34.4 C19.2,33.9582031 18.8417969,33.6 18.4,33.6 L8.8,33.6 C8.3582031,33.6 8,33.9582031 8,34.4 L8,40.8 C8,41.2417969 8.3582031,41.6 8.8,41.6 L18.4,41.6 C18.8417969,41.6 19.2,41.2417969 19.2,40.8 L19.2,38.4 L25.6,38.4 L25.6,40.8 C25.6,41.2417969 25.9582031,41.6 26.4,41.6 Z M27.2,35.2 L35.2,35.2 L35.2,40 L27.2,40 L27.2,35.2 Z M17.6,40 L9.6,40 L9.6,35.2 L17.6,35.2 L17.6,40 Z" id="Shape"></path>
                    <path d="M34.4,6.4 C30.4234375,6.4 27.2,9.6234375 27.2,13.6 C27.2,17.5765625 30.4234375,20.8 34.4,20.8 C38.3765625,20.8 41.6,17.5765625 41.6,13.6 C41.5957031,9.6253906 38.3746094,6.4042969 34.4,6.4 Z M34.4,19.2 C31.3070312,19.2 28.8,16.6929688 28.8,13.6 C28.8,10.5070312 31.3070312,8 34.4,8 C37.4929688,8 40,10.5070312 40,13.6 C39.9964844,16.6914062 37.4914062,19.1964844 34.4,19.2 Z" id="Shape"></path>
                    <path d="M47.2,16.8 C47.6417969,16.8 48,16.4417969 48,16 L48,11.2 C48,10.7582031 47.6417969,10.4 47.2,10.4 L44.2855469,10.4 C44.1148438,9.875 43.903125,9.3640625 43.6527344,8.871875 L45.7167969,6.8152344 C45.8671875,6.6652344 45.9519531,6.4613281 45.9519531,6.2488281 C45.9519531,6.0363281 45.8671875,5.8324219 45.7167969,5.6824219 L42.3199219,2.2824219 C42.1699219,2.1324219 41.9664062,2.0480469 41.7542969,2.0480469 C41.5421875,2.0484375 41.3386719,2.1328125 41.1886719,2.2832031 L39.128125,4.3472656 C38.6359375,4.096875 38.125,3.8855469 37.6,3.7144531 L37.6,0.8 C37.6,0.3582031 37.2417969,0 36.8,0 L32,0 C31.5582031,0 31.2,0.3582031 31.2,0.8 L31.2,3.7144531 C30.675,3.8855469 30.1640625,4.096875 29.671875,4.3472656 L27.6144531,2.2832031 C27.4644531,2.1328125 27.2609375,2.0484375 27.0488281,2.0480469 C26.8367188,2.0480469 26.6332031,2.1324219 26.4832031,2.2824219 L23.0824219,5.6800781 C22.9320312,5.8300781 22.8472656,6.0339844 22.8472656,6.2464844 C22.8472656,6.4589844 22.9320312,6.6628906 23.0824219,6.8128906 L25.1464844,8.8695312 C24.8960938,9.3625 24.6847656,9.8742188 24.5144531,10.4 L21.6,10.4 C21.1582031,10.4 20.8,10.7582031 20.8,11.2 L20.8,16 C20.8,16.4417969 21.1582031,16.8 21.6,16.8 L24.5144531,16.8 C24.6851562,17.325 24.896875,17.8359375 25.1472656,18.328125 L23.0832031,20.3847656 C22.9324219,20.5347656 22.8476562,20.7390625 22.8476562,20.9515625 C22.8476562,21.1644531 22.9324219,21.3683594 23.0832031,21.5183594 L26.4800781,24.9097656 C26.7925781,25.221875 27.2988281,25.221875 27.6113281,24.9097656 L29.66875,22.8527344 C30.1621094,23.103125 30.6742188,23.3144531 31.2,23.4855469 L31.2,26.4 C31.2,26.8417969 31.5582031,27.2 32,27.2 L36.8,27.2 C37.2417969,27.2 37.6,26.8417969 37.6,26.4 L37.6,23.4855469 C38.1253906,23.3144531 38.6363281,23.103125 39.1289062,22.8527344 L41.1863281,24.9097656 C41.4988281,25.2214844 42.0042969,25.2214844 42.3167969,24.9097656 L45.7167969,21.5175781 C45.8675781,21.3675781 45.9523438,21.1636719 45.9523438,20.9507812 C45.9523438,20.7378906 45.8675781,20.5339844 45.7167969,20.3839844 L43.6527344,18.3273438 C43.903125,17.8355469 44.1148438,17.3246094 44.2855469,16.8 L47.2,16.8 Z M42.9152344,15.7960938 C42.7046875,16.5925781 42.3878906,17.3570312 41.9726562,18.06875 C41.7894531,18.3832031 41.8414062,18.7816406 42.0992188,19.0382812 L44.0191406,20.9519531 L41.7527344,23.2136719 L39.8398438,21.2984375 C39.5832031,21.0414062 39.1851562,20.9898438 38.8710938,21.1726562 C38.1597656,21.5878906 37.3949219,21.9046875 36.5984375,22.1144531 C36.2460938,22.20625 36.0003906,22.5242188 36,22.8878906 L36,25.6 L32.8,25.6 L32.8,22.8878906 C32.8,22.5246094 32.5550781,22.2070312 32.2039062,22.1144531 C31.4074219,21.9046875 30.6425781,21.5878906 29.93125,21.1726562 C29.6171875,20.9898438 29.2191406,21.0414062 28.9625,21.2984375 L27.0480469,23.2128906 L24.7816406,20.9519531 L26.7015625,19.0382812 C26.959375,18.7816406 27.0113281,18.3832031 26.828125,18.06875 C26.4128906,17.3570312 26.0960938,16.5925781 25.8855469,15.7960938 C25.7929688,15.4449219 25.4753906,15.2 25.1121094,15.2 L22.4,15.2 L22.4,12 L25.1121094,12 C25.475,11.9996094 25.7921875,11.7550781 25.8847656,11.4039062 C26.0953125,10.6074219 26.4121094,9.8429688 26.8273438,9.13125 C27.0105469,8.8167969 26.9585938,8.4183594 26.7007812,8.1617188 L24.7808594,6.2472656 L27.0480469,3.9800781 L28.9625,5.9 C29.2191406,6.1578125 29.6175781,6.2097656 29.9320312,6.0265625 C30.6433594,5.6113281 31.4082031,5.2945312 32.2046875,5.0847656 C32.5554688,4.9917969 32.7996094,4.6746094 32.8,4.3121094 L32.8,1.6 L36,1.6 L36,4.3121094 C36,4.6753906 36.2449219,4.9929688 36.5960938,5.0855469 C37.3925781,5.2953125 38.1574219,5.6121094 38.86875,6.0273438 C39.1835938,6.2113281 39.5828125,6.159375 39.8398438,5.9007812 L41.7542969,3.9808594 L44.0214844,6.2480469 L42.1015625,8.1625 C41.84375,8.4191406 41.7917969,8.8175781 41.9753906,9.1320312 C42.3902344,9.84375 42.7070312,10.6082031 42.9175781,11.4046875 C43.0101562,11.7546875 43.3261719,11.9988281 43.6878906,12 L46.4,12 L46.4,15.2 L43.6878906,15.2 C43.325,15.2003906 43.0078125,15.4449219 42.9152344,15.7960938 L42.9152344,15.7960938 Z" id="Shape"></path>
                    <path d="M34.4,10.4 C32.6328125,10.4 31.2,11.8328125 31.2,13.6 C31.2,15.3671875 32.6328125,16.8 34.4,16.8 C36.1671875,16.8 37.6,15.3671875 37.6,13.6 C37.6,11.8328125 36.1671875,10.4 34.4,10.4 Z M34.4,15.2 C33.5164062,15.2 32.8,14.4835938 32.8,13.6 C32.8,12.7164062 33.5164062,12 34.4,12 C35.2835938,12 36,12.7164062 36,13.6 C36,14.4835938 35.2835938,15.2 34.4,15.2 Z" id="Shape"></path>
                </g>
            </g>
        </g>
    </g>
</svg>