<?xml version="1.0" encoding="UTF-8"?>
<svg width="50px" height="43px" viewBox="-5 -5 55 48" version="1.1" xmlns="http://www.w3.org/2000/svg" xmlns:xlink="http://www.w3.org/1999/xlink">
    <!-- Generator: Sketch 55 (78076) - https://sketchapp.com -->
    <title>ico-variables</title>
    <desc>Created with Sketch.</desc>
    <g id="Page-1" stroke="none" stroke-width="1" fill="none" fill-rule="evenodd">
        <g id="A4" transform="translate(-1170.000000, -865.000000)" fill-rule="nonzero">
            <g id="Angular-BPMN-+-Rectangle-+-ico-algorithm-+-ico-rule-+-ico-score-+-ico-support-+-ico-decision-tree-+-ico-decision-table-+-ico-variables-Mask" transform="translate(1132.000000, 163.000000)">
                <g id="ico-variables" transform="translate(39.000000, 703.000000)">
                    <path d="M42.4615385,0 L5.53846154,0 C2.48123077,0 0,2.47938462 0,5.53846154 L0,35.0769231 C0,38.1341538 2.48123077,40.6153846 5.53846154,40.6153846 L42.4615385,40.6153846 C45.5187692,40.6153846 48,38.1341538 48,35.0769231 L48,5.53846154 C48,2.47938462 45.5187692,0 42.4615385,0 Z" id="Path" stroke="#fff" stroke-width="2"></path>
                    <path d="M35.4147692,19.7815385 C35.4147692,21.6812308 35.184,23.3372308 34.7243077,24.7495385 C34.4529231,25.5858462 33.8676923,26.8910769 32.9981538,28.6153846 L35.1507692,28.6153846 C36.1587692,27.0092308 36.8547692,25.7483077 37.1981538,24.8787692 C37.8166154,23.3538462 38.1249231,21.6184615 38.1249231,19.6744615 C38.1249231,18.9323077 38.0584615,18.1606154 37.9236923,17.3575385 C37.7889231,16.5563077 37.5636923,15.744 37.248,14.9243077 C36.9987692,14.2615385 36.7661538,13.7390769 36.5538462,13.3606154 C36.4264615,13.1372308 36.1403077,12.6646154 35.7304615,12.0018462 L33.504,12.0018462 C34.0135385,13.0449231 34.3938462,13.9126154 34.6172308,14.5698462 C35.1489231,16.1446154 35.4147692,17.8836923 35.4147692,19.7815385 Z" id="Path" fill="#fff"></path>
                    <path d="M11.712,19.7815385 C11.712,21.6812308 11.9427692,23.3372308 12.4024615,24.7495385 C12.6738462,25.5858462 13.2572308,26.8910769 14.1267692,28.6153846 L11.9741538,28.6153846 C10.9661538,27.0092308 10.2701538,25.7483077 9.92676923,24.8787692 C9.30830769,23.3538462 9,21.6184615 9,19.6744615 C9,18.9323077 9.06646154,18.1606154 9.20123077,17.3575385 C9.336,16.5563077 9.56123077,15.744 9.87692308,14.9243077 C10.1261538,14.2615385 10.3587692,13.7390769 10.5710769,13.3606154 C10.7003077,13.1353846 10.9846154,12.6627692 11.3963077,12 L13.6227692,12 C13.1132308,13.0430769 12.7329231,13.9107692 12.5095385,14.568 C11.9778462,16.1446154 11.712,17.8836923 11.712,19.7815385 Z" id="Path" fill="#fff"></path>
                    <path d="M31.0356923,15.8547692 C31.0356923,16.5526154 30.8141538,17.1083077 30.3692308,17.52 C29.9243077,17.9316923 29.3815385,18.1384615 28.7409231,18.1384615 C28.3569231,18.1384615 27.9784615,18.0904615 27.6055385,17.9944615 C27.2344615,17.8984615 26.9113846,17.8024615 26.6381538,17.7064615 C26.5107692,17.7950769 26.3224615,17.9870769 26.0750769,18.2843077 C25.8258462,18.5815385 25.5470769,18.9415385 25.2332308,19.3661538 C25.5193846,20.5938462 25.752,21.4652308 25.9292308,21.9821538 C26.1046154,22.4972308 26.2726154,23.0215385 26.4313846,23.5513846 C26.568,23.9723077 26.7692308,24.3027692 27.0313846,24.5409231 C27.2972308,24.7790769 27.7126154,24.8972308 28.2830769,24.8972308 C28.4916923,24.8972308 28.752,24.8584615 29.064,24.7772308 C29.3778462,24.6978462 29.6344615,24.6166154 29.8338462,24.5372308 L29.568,25.6246154 C28.7741538,25.9643077 28.0818462,26.2098462 27.4910769,26.3612308 C26.8984615,26.5163077 26.3704615,26.592 25.9052308,26.592 C25.5673846,26.592 25.2369231,26.5587692 24.9064615,26.496 C24.5778462,26.4313846 24.2769231,26.3150769 24.0073846,26.1470769 C23.712,25.9698462 23.4609231,25.7501538 23.256,25.488 C23.0529231,25.2221538 22.8775385,24.8529231 22.7335385,24.3803077 C22.6356923,24.0849231 22.5470769,23.7470769 22.4676923,23.3704615 C22.3864615,22.9938462 22.3052308,22.6596923 22.224,22.3716923 C21.9913846,22.7187692 21.8233846,22.9735385 21.72,23.1415385 C21.6147692,23.3113846 21.4633846,23.5476923 21.264,23.8523077 C20.6307692,24.8215385 20.0806154,25.512 19.6153846,25.9255385 C19.1501538,26.3390769 18.5926154,26.544 17.9446154,26.544 C17.4553846,26.544 17.04,26.3796923 16.6947692,26.0510769 C16.3495385,25.7224615 16.1778462,25.2941538 16.1778462,24.7661538 C16.1778462,24.0516923 16.3993846,23.4904615 16.8443077,23.0750769 C17.2910769,22.6633846 17.8338462,22.4566154 18.4781538,22.4566154 C18.8621538,22.4566154 19.2313846,22.5027692 19.5858462,22.5950769 C19.9403077,22.6873846 20.2726154,22.7889231 20.5846154,22.9015385 C20.7046154,22.8036923 20.8929231,22.6172308 21.1458462,22.3347692 C21.3987692,22.056 21.672,21.7070769 21.9692308,21.2898462 C21.7015385,20.2172308 21.4855385,19.4067692 21.3156923,18.8621538 C21.144,18.3175385 20.9723077,17.7766154 20.7950769,17.2393846 C20.6510769,16.8110769 20.4424615,16.4787692 20.1692308,16.2461538 C19.8978462,16.0098462 19.488,15.8935385 18.9433846,15.8935385 C18.7015385,15.8935385 18.4338462,15.936 18.1366154,16.0190769 C17.8393846,16.104 17.592,16.1815385 17.3926154,16.2535385 L17.6566154,15.1661538 C18.3784615,14.8430769 19.0596923,14.5993846 19.704,14.4387692 C20.3501538,14.2763077 20.8892308,14.1969231 21.3212308,14.1969231 C21.7144615,14.1969231 22.0504615,14.2264615 22.3310769,14.2818462 C22.6098462,14.3372308 22.9070769,14.4572308 23.2172308,14.6418462 C23.5052308,14.8172308 23.7563077,15.0406154 23.9686154,15.3083077 C24.1809231,15.576 24.3563077,15.9433846 24.4910769,16.4086154 C24.5907692,16.7298462 24.6793846,17.0621538 24.7606154,17.4055385 C24.8418462,17.7526154 24.9101538,18.048 24.9673846,18.2953846 C25.1353846,18.0387692 25.3107692,17.7747692 25.4898462,17.5015385 C25.6689231,17.2283077 25.824,16.9883077 25.9513846,16.7796923 C26.5698462,15.8104615 27.1218462,15.1144615 27.6110769,14.6935385 C28.0984615,14.2707692 28.6504615,14.0621538 29.2670769,14.0621538 C29.7710769,14.0621538 30.192,14.2283077 30.5298462,14.5606154 C30.8676923,14.8947692 31.0356923,15.3267692 31.0356923,15.8547692 Z" id="Path" fill="#fff"></path>
                </g>
            </g>
        </g>
    </g>
</svg>