<?xml version="1.0" encoding="UTF-8"?>
<svg width="46px" height="48px" viewBox="-5 -5 51 53" version="1.1" xmlns="http://www.w3.org/2000/svg" xmlns:xlink="http://www.w3.org/1999/xlink">
    <!-- Generator: Sketch 55 (78076) - https://sketchapp.com -->
    <title>ico-score</title>
    <desc>Created with Sketch.</desc>
    <g id="Page-1" stroke="none" stroke-width="1" fill="none" fill-rule="evenodd">
        <g id="A4" transform="translate(-1173.000000, -769.000000)" fill="#fff" fill-rule="nonzero">
            <g id="Angular-BPMN-+-Rectangle-+-ico-algorithm-+-ico-rule-+-ico-score-+-ico-support-+-ico-decision-tree-+-ico-decision-table-+-ico-variables-Mask" transform="translate(1132.000000, 163.000000)">
                <g id="ico-score" transform="translate(41.000000, 606.000000)">
                    <path d="M22.9559867,10.0152381 L22.9559867,10.0152381 C25.7068173,10.0152381 27.9380465,7.80571429 27.9380465,5.09333333 C27.9380465,2.38095238 25.7068173,0.171428571 22.9559867,0.171428571 C20.2051561,0.171428571 17.9739269,2.38095238 17.9739269,5.09333333 C17.9739269,7.80571429 20.2051561,10.0152381 22.9559867,10.0152381 Z M22.9559867,2.44190476 C24.4383787,2.44190476 25.6456877,3.6152381 25.6456877,5.07809524 C25.6456877,6.52571429 24.4383787,7.71428571 22.9559867,7.71428571 C21.4735947,7.71428571 20.2662857,6.54095238 20.2662857,5.07809524 C20.2664385,3.63047619 21.4737475,2.44190476 22.9559867,2.44190476 Z" id="Shape"></path>
                    <path d="M30.6279003,10.0304762 C31.2544784,10.0304762 31.7740797,9.51238095 31.7740797,8.88761905 L31.7740797,8.23238095 L35.3195947,9.90857143 C35.4724186,9.9847619 35.6405249,10.0152381 35.8086312,10.0152381 C36.2365382,10.0152381 36.6491628,9.77142857 36.8325515,9.40571429 C37.1076346,8.84190476 36.8631163,8.15619048 36.2976678,7.88190476 L33.2106246,6.41904762 L36.3282326,4.81904762 C36.7102924,4.62095238 36.9548106,4.2247619 36.9548106,3.79809524 L36.9548106,1.32952381 C36.9548106,0.704761905 36.4352093,0.186666667 35.8086312,0.186666667 L30.6279003,0.186666667 C30.0013223,0.186666667 29.4817209,0.704761905 29.4817209,1.32952381 L29.4817209,6.43428571 L29.4817209,8.88761905 C29.4817209,9.51238095 30.0011694,10.0304762 30.6279003,10.0304762 Z M31.7740797,2.44190476 L34.6624518,2.44190476 L34.6624518,3.06666667 L31.7740797,4.5447619 L31.7740797,2.44190476 Z" id="Shape"></path>
                    <polygon id="Path" points="35.8086312 10.0152381 35.8084784 10.0152381 35.8084784 10.0152381"></polygon>
                    <path d="M13.8478339,9.95428571 C14.5049767,9.95428571 15.1621196,9.81714286 15.7734153,9.48190476 C16.3388638,9.20761905 16.5680997,8.52190476 16.2930166,7.95809524 C16.0179336,7.39428571 15.3302259,7.16571429 14.7647774,7.44 C13.8019867,7.91238095 12.6558073,7.59238095 11.9833821,6.66285714 C11.9680997,6.63238095 11.9375349,6.61714286 11.9222525,6.58666667 C11.1428505,5.68761905 11.1428505,4.43809524 11.9222525,3.53904762 C11.9375349,3.52380952 11.9680997,3.49333333 11.9833821,3.46285714 C12.6405249,2.53333333 13.8325515,2.15238095 14.8717542,2.53333333 C15.452485,2.76190476 16.1249103,2.45714286 16.3388638,1.86285714 C16.5680997,1.28380952 16.2624518,0.613333333 15.6664385,0.4 C13.69501,-0.331428571 11.4332159,0.36952381 10.149495,2.09142857 C8.66710299,3.82857143 8.66710299,6.31238095 10.149495,8.04952381 C11.0511561,9.28380952 12.4418538,9.95428571 13.8478339,9.95428571 Z" id="Path"></path>
                    <path d="M44.8405249,2.45714286 C45.467103,2.45714286 45.9867043,1.93904762 45.9867043,1.31428571 C45.9867043,0.68952381 45.467103,0.171428571 44.8405249,0.171428571 L39.659794,0.171428571 C39.0332159,0.171428571 38.5136146,0.68952381 38.5136146,1.31428571 L38.5136146,8.88761905 C38.5136146,9.51238095 39.0332159,10.0304762 39.659794,10.0304762 L44.8405249,10.0304762 C45.467103,10.0304762 45.9867043,9.51238095 45.9867043,8.88761905 C45.9867043,8.26285714 45.467103,7.72952381 44.8405249,7.72952381 L44.8405249,7.72952381 L40.8059734,7.72952381 L40.8059734,6.23619048 L42.1508239,6.23619048 C42.777402,6.23619048 43.2970033,5.71809524 43.2970033,5.09333333 C43.2970033,4.46857143 42.777402,3.95047619 42.1508239,3.95047619 L40.8059734,3.95047619 L40.8059734,2.45714286 L44.8405249,2.45714286 L44.8405249,2.45714286 Z" id="Path"></path>
                    <path d="M0.124245847,8.87238095 C0.124245847,9.49714286 0.643847176,10.0152381 1.27042525,10.0152381 L6.45115615,10.0152381 C6.87906312,10.0152381 7.26112292,9.77142857 7.45979402,9.40571429 C7.65846512,9.04 7.64318272,8.58285714 7.39866445,8.23238095 L3.44052492,2.44190476 L6.45115615,2.44190476 C7.07773422,2.44190476 7.59733555,1.92380952 7.59733555,1.29904762 C7.59733555,0.674285714 7.07773422,0.156190476 6.45115615,0.156190476 L1.27042525,0.156190476 C0.857800664,0.156190476 0.460458472,0.384761905 0.261787375,0.765714286 C0.0631162791,1.13142857 0.0783986711,1.58857143 0.322916944,1.93904762 L4.28105648,7.72952381 L1.27042525,7.72952381 C0.643694352,7.72952381 0.124245847,8.24761905 0.124245847,8.87238095 Z" id="Path"></path>
                    <path d="M0.124245847,47.8666667 L45.9867043,47.8666667 L45.9867043,15.287619 L0.124245847,15.287619 L0.124245847,47.8666667 Z M38.3147907,17.5885714 L43.6941927,17.5885714 L43.6941927,25.3295238 L38.3147907,25.3295238 L38.3147907,17.5885714 Z M38.2996611,27.6152381 L43.6790631,27.6152381 L43.6790631,35.5542857 L38.2996611,35.5542857 L38.2996611,27.6152381 Z M38.2996611,37.84 L43.6790631,37.84 L43.6790631,45.5809524 L38.2996611,45.5809524 L38.2996611,37.84 Z M30.6279003,17.5733333 L36.0073023,17.5733333 L36.0073023,25.3142857 L30.6279003,25.3142857 L30.6279003,17.5733333 Z M30.6279003,27.6152381 L36.0073023,27.6152381 L36.0073023,35.5542857 L30.6279003,35.5542857 L30.6279003,27.6152381 Z M30.6279003,37.84 L36.0073023,37.84 L36.0073023,45.5809524 L30.6279003,45.5809524 L30.6279003,37.84 Z M10.0883654,17.5885714 L28.3355415,17.5885714 L28.3355415,25.3295238 L10.0883654,25.3295238 L10.0883654,17.5885714 Z M10.0883654,27.6152381 L28.3355415,27.6152381 L28.3355415,35.5542857 L10.0883654,35.5542857 L10.0883654,27.6152381 Z M10.0883654,37.84 L28.3355415,37.84 L28.3355415,45.5809524 L10.0883654,45.5809524 L10.0883654,37.84 Z M2.41660465,17.5733333 L7.79600664,17.5733333 L7.79600664,25.3142857 L2.41660465,25.3142857 L2.41660465,17.5733333 Z M2.41660465,27.6152381 L7.79600664,27.6152381 L7.79600664,35.5542857 L2.41660465,35.5542857 L2.41660465,27.6152381 Z M2.41660465,37.84 L7.79600664,37.84 L7.79600664,45.5809524 L2.41660465,45.5809524 L2.41660465,37.84 Z" id="Shape"></path>
                </g>
            </g>
        </g>
    </g>
</svg>